<svg width="20" height="27" viewBox="0 0 20 27" fill="none" xmlns="http://www.w3.org/2000/svg">
<path d="M7.5 1.25213C7.5 0.152131 8.82 -0.411619 9.615 0.349631C12.0625 2.69463 13.485 7.84338 11.8025 11.7496L11.7025 11.9671L11.7175 11.9709C12.4987 12.1371 13.2213 11.4334 14.5963 9.25463L14.7713 8.97463C14.8727 8.81137 15.0104 8.6737 15.1737 8.57231C15.3369 8.47092 15.5214 8.40856 15.7127 8.39006C15.904 8.37155 16.097 8.39742 16.2767 8.46563C16.4564 8.53385 16.6179 8.64258 16.7488 8.78338C18.4163 10.5771 20 14.2546 20 16.6209C20 21.9521 15.5112 26.2521 10 26.2521C4.48875 26.2521 0 21.9521 0 16.6196C0 13.8046 1.2775 10.7246 3.29 8.74338L4.04625 8.00713C4.3475 7.71213 4.58875 7.46963 4.81875 7.22713C6.60625 5.33713 7.5 3.57213 7.5 1.25213Z" fill="url(#paint0_linear_1_15)"/>
<defs>
<linearGradient id="paint0_linear_1_15" x1="-0.20202" y1="0.5" x2="21.8744" y2="1.57727" gradientUnits="userSpaceOnUse">
<stop offset="0.239557" stop-color="#CC3534"/>
<stop offset="0.768516" stop-color="#F48120"/>
</linearGradient>
</defs>
</svg>
