<svg width="99" height="27" viewBox="0 0 99 27" fill="none" xmlns="http://www.w3.org/2000/svg">
<path d="M7.5 1.25213C7.5 0.152131 8.82 -0.411619 9.615 0.349631C12.0625 2.69463 13.485 7.84338 11.8025 11.7496L11.7025 11.9671L11.7175 11.9709C12.4987 12.1371 13.2213 11.4334 14.5963 9.25463L14.7713 8.97463C14.8727 8.81137 15.0104 8.6737 15.1737 8.57231C15.3369 8.47092 15.5214 8.40856 15.7127 8.39006C15.904 8.37155 16.097 8.39742 16.2767 8.46563C16.4564 8.53385 16.6179 8.64258 16.7488 8.78338C18.4163 10.5771 20 14.2546 20 16.6209C20 21.9521 15.5112 26.2521 10 26.2521C4.48875 26.2521 0 21.9521 0 16.6196C0 13.8046 1.2775 10.7246 3.29 8.74338L4.04625 8.00713C4.3475 7.71213 4.58875 7.46963 4.81875 7.22713C6.60625 5.33713 7.5 3.57213 7.5 1.25213Z" fill="url(#paint0_linear_1_11)"/>
<path d="M36.68 18.48C36.6667 18.7067 36.6333 18.9467 36.58 19.2C36.54 19.4533 36.4133 19.66 36.2 19.82C36.04 19.9533 35.86 20.0333 35.66 20.06C35.46 20.0867 35.26 20.0733 35.06 20.02C34.8733 19.98 34.6933 19.9133 34.52 19.82C34.3467 19.7133 34.2067 19.5867 34.1 19.44C33.6467 18.88 33.2267 18.3067 32.84 17.72C32.4667 17.12 32.0867 16.52 31.7 15.92L30.02 13.38C29.7933 13.02 29.5533 12.62 29.3 12.18C29.0467 11.7267 28.7867 11.3067 28.52 10.92L28.46 18.56V18.74C28.46 18.9533 28.42 19.1667 28.34 19.38C28.2733 19.58 28.1533 19.7533 27.98 19.9C27.8467 20.0067 27.6733 20.08 27.46 20.12C27.1267 20.1867 26.8467 20.1667 26.62 20.06C26.4067 19.9533 26.2333 19.8067 26.1 19.62C25.98 19.4333 25.8933 19.22 25.84 18.98C25.8 18.7267 25.7933 18.48 25.82 18.24V17.9L25.86 16.34L25.88 13.44C25.8933 13.0133 25.9 12.58 25.9 12.14C25.9 11.6867 25.9 11.2267 25.9 10.76C25.8867 10.1867 25.8867 9.58 25.9 8.94C25.9267 8.3 25.9533 7.7 25.98 7.14C26.0067 6.83333 26.08 6.57333 26.2 6.36C26.2533 6.17333 26.3933 6.01333 26.62 5.88C26.7667 5.78667 26.9533 5.72667 27.18 5.7C27.42 5.67333 27.6267 5.68 27.8 5.72C27.8667 5.74667 27.9333 5.78 28 5.82C28.0667 5.84667 28.1333 5.88 28.2 5.92C28.2667 5.97333 28.3267 6.02667 28.38 6.08C28.4467 6.13333 28.5067 6.19333 28.56 6.26C28.6267 6.32667 28.6867 6.4 28.74 6.48C28.7933 6.54667 28.8467 6.61333 28.9 6.68C28.94 6.76 28.98 6.83333 29.02 6.9C29.06 6.96667 29.1067 7.03333 29.16 7.1L29.38 7.42L34 14.7V13.38C34 12.9533 33.9933 12.52 33.98 12.08C33.98 11.6267 33.9733 11.16 33.96 10.68C33.96 10.12 33.96 9.52 33.96 8.88C33.9733 8.24 33.9933 7.64 34.02 7.08C34.02 6.85333 34.0867 6.59333 34.22 6.3C34.2867 6.12667 34.4 5.98667 34.56 5.88C34.72 5.77333 34.9 5.7 35.1 5.66C35.3 5.62 35.5 5.62 35.7 5.66C35.9 5.7 36.0733 5.78 36.22 5.9C36.26 5.94 36.3 5.98667 36.34 6.04C36.38 6.09333 36.4133 6.15333 36.44 6.22C36.5067 6.39333 36.5467 6.54667 36.56 6.68C36.6 6.86667 36.62 7.03333 36.62 7.18C36.62 8.84667 36.62 10.5467 36.62 12.28C36.6333 14.0133 36.6467 15.7133 36.66 17.38C36.66 17.5667 36.6667 17.7533 36.68 17.94C36.6933 18.1133 36.6933 18.2933 36.68 18.48ZM43.9 11C44.2867 11.16 44.64 11.3933 44.96 11.7C45.28 11.9933 45.5533 12.3333 45.78 12.72C46.02 13.1067 46.2 13.5267 46.32 13.98C46.4533 14.42 46.52 14.8667 46.52 15.32C46.5333 16 46.3733 16.64 46.04 17.24C45.72 17.84 45.1933 18.3 44.46 18.62C43.9 18.8467 43.32 19.02 42.72 19.14C42.1333 19.2467 41.52 19.32 40.88 19.36V23.02C40.88 23.1 40.8667 23.1733 40.84 23.24C40.8267 23.3067 40.82 23.3733 40.82 23.44C40.7933 23.5733 40.76 23.6933 40.72 23.8C40.6933 23.9067 40.6533 24.02 40.6 24.14C40.5467 24.22 40.4933 24.2933 40.44 24.36C40.3867 24.4267 40.3267 24.4933 40.26 24.56C39.94 24.72 39.6067 24.7533 39.26 24.66C39.0467 24.6467 38.8733 24.58 38.74 24.46C38.62 24.34 38.5333 24.2133 38.48 24.08C38.4267 23.9467 38.38 23.7933 38.34 23.62C38.3267 23.5533 38.3133 23.4867 38.3 23.42C38.3 23.3667 38.3 23.3067 38.3 23.24V12.1C38.3 12.02 38.3 11.94 38.3 11.86C38.3133 11.7667 38.3267 11.6733 38.34 11.58C38.3533 11.42 38.3933 11.26 38.46 11.1C38.58 10.7667 38.8267 10.54 39.2 10.42C39.5733 10.3 39.9933 10.2467 40.46 10.26C40.78 10.2733 41.1067 10.3067 41.44 10.36C41.7867 10.4133 42.1133 10.48 42.42 10.56C42.74 10.6267 43.0267 10.7 43.28 10.78C43.5333 10.86 43.74 10.9333 43.9 11ZM43.94 15.32C43.9933 14.9467 43.9467 14.6333 43.8 14.38C43.6667 14.1133 43.4733 13.9 43.22 13.74C42.9667 13.5667 42.6733 13.4333 42.34 13.34C42.02 13.2467 41.7 13.18 41.38 13.14C41.34 13.1267 41.2733 13.12 41.18 13.12C41.1 13.12 41.0067 13.12 40.9 13.12C40.9 13.5467 40.9 13.96 40.9 14.36C40.9133 14.7467 40.9133 15.1667 40.9 15.62V16.96C41.2067 16.9467 41.5267 16.9133 41.86 16.86C42.2067 16.8067 42.5267 16.72 42.82 16.6C43.1133 16.48 43.36 16.32 43.56 16.12C43.7733 15.92 43.9 15.6533 43.94 15.32ZM53.4541 11.54C53.6807 11.6067 53.8274 11.7333 53.8941 11.92C53.9607 12.0933 53.9807 12.28 53.9541 12.48C53.8741 12.8933 53.6474 13.1467 53.2741 13.24C53.0607 13.2933 52.8407 13.32 52.6141 13.32C52.4007 13.32 52.1807 13.3267 51.9541 13.34V17.96C51.9541 18.28 51.9341 18.6067 51.8941 18.94C51.8941 19.06 51.8607 19.1867 51.7941 19.32C51.7674 19.3867 51.7474 19.4267 51.7341 19.44C51.7341 19.4667 51.7207 19.5067 51.6941 19.56C51.6141 19.7067 51.5074 19.8267 51.3741 19.92C51.0807 20.08 50.7674 20.12 50.4341 20.04C50.2341 20 50.0807 19.9333 49.9741 19.84C49.8541 19.7467 49.7674 19.6333 49.7141 19.5C49.6874 19.4333 49.6674 19.3667 49.6541 19.3C49.6407 19.2333 49.6207 19.1667 49.5941 19.1C49.5807 19.0333 49.5674 18.9733 49.5541 18.92C49.5541 18.8533 49.5541 18.8 49.5541 18.76V17.6C49.5541 16.9067 49.5541 16.1867 49.5541 15.44C49.5674 14.6933 49.5741 13.9733 49.5741 13.28C49.2674 13.2667 48.9474 13.26 48.6141 13.26C48.2941 13.2467 48.0607 13.1667 47.9141 13.02C47.8341 12.94 47.7807 12.84 47.7541 12.72C47.7274 12.5867 47.7141 12.4533 47.7141 12.32C47.7274 12.1867 47.7541 12.0667 47.7941 11.96C47.8341 11.84 47.8874 11.7533 47.9541 11.7C48.1274 11.54 48.2807 11.4533 48.4141 11.44C48.5607 11.4133 48.7407 11.3933 48.9541 11.38C48.9807 11.38 49.0674 11.38 49.2141 11.38C49.3741 11.3667 49.4741 11.36 49.5141 11.36C49.5274 10.9067 49.5407 10.4533 49.5541 10C49.5674 9.54667 49.6074 9.13333 49.6741 8.76C49.7541 8.37333 49.8674 8.04 50.0141 7.76C50.1741 7.46667 50.4141 7.24667 50.7341 7.1C51.1207 6.92667 51.5607 6.82 52.0541 6.78C52.5474 6.74 52.9941 6.8 53.3941 6.96C53.5807 7.02667 53.7607 7.16 53.9341 7.36C54.1207 7.56 54.2074 7.78 54.1941 8.02C54.1807 8.26 54.1341 8.48 54.0541 8.68C53.9741 8.88 53.8007 9.01333 53.5341 9.08C53.4141 9.10667 53.2874 9.12 53.1541 9.12C53.0341 9.10667 52.9074 9.1 52.7741 9.1C52.6407 9.1 52.5141 9.12 52.3941 9.16C52.2874 9.18667 52.1941 9.24667 52.1141 9.34C52.0474 9.42 52.0007 9.52667 51.9741 9.66C51.9607 9.79333 51.9474 9.93333 51.9341 10.08C51.9207 10.2267 51.9141 10.3733 51.9141 10.52C51.9274 10.6533 51.9341 10.7667 51.9341 10.86V11.36C52.2407 11.3867 52.5207 11.4067 52.7741 11.42C53.0407 11.4333 53.2674 11.4733 53.4541 11.54ZM58.4795 18.4C58.4662 18.4667 58.4529 18.5333 58.4395 18.6C58.4395 18.6533 58.4395 18.7133 58.4395 18.78L58.3195 19.2C58.2929 19.2533 58.2729 19.2867 58.2595 19.3L58.1995 19.42C58.1329 19.5667 58.0129 19.6867 57.8395 19.78C57.5195 19.94 57.1795 19.98 56.8195 19.9C56.5929 19.8733 56.4129 19.8067 56.2795 19.7C56.1462 19.6067 56.0529 19.4933 55.9995 19.36C55.9462 19.2267 55.9062 19.0933 55.8795 18.96C55.8395 18.8267 55.8195 18.7067 55.8195 18.6V7.4C55.8195 7.30667 55.8195 7.22667 55.8195 7.16C55.8329 7.08 55.8462 7.00667 55.8595 6.94C55.8729 6.84667 55.8862 6.76667 55.8995 6.7C55.9262 6.63333 55.9529 6.56 55.9795 6.48C56.0195 6.34667 56.0929 6.24 56.1995 6.16C56.3595 6.04 56.5129 5.97333 56.6595 5.96C56.7529 5.93333 56.8395 5.92 56.9195 5.92C56.9995 5.90667 57.0929 5.9 57.1995 5.9C57.3862 5.9 57.5995 5.95333 57.8395 6.06C58.0262 6.16667 58.1595 6.31333 58.2395 6.5C58.3729 6.76667 58.4395 7.01333 58.4395 7.24C58.4529 7.37333 58.4595 7.57333 58.4595 7.84C58.4729 8.10667 58.4795 8.30667 58.4795 8.44V8.52C58.5062 8.94667 58.5195 9.36 58.5195 9.76C58.5195 10.1467 58.5129 10.5733 58.4995 11.04C58.4995 11.4933 58.4929 11.9333 58.4795 12.36C58.4795 12.7733 58.4795 13.1867 58.4795 13.6V17.8C58.4795 17.8533 58.4795 17.9067 58.4795 17.96C58.4929 18 58.4995 18.0467 58.4995 18.1C58.4995 18.2333 58.4929 18.3333 58.4795 18.4ZM62.4564 11.58C62.8564 11.38 63.2764 11.24 63.7164 11.16C64.1564 11.0667 64.5897 11.0467 65.0164 11.1C65.4564 11.14 65.8764 11.2533 66.2764 11.44C66.6764 11.6133 67.0497 11.8667 67.3964 12.2C67.7431 12.5467 68.0097 12.9267 68.1964 13.34C68.3831 13.7533 68.5164 14.2133 68.5964 14.72C68.6497 15.0667 68.7364 15.3867 68.8564 15.68C68.9764 15.9733 69.1031 16.2667 69.2364 16.56C69.3831 16.8533 69.5164 17.1467 69.6364 17.44C69.7697 17.7333 69.8764 18.04 69.9564 18.36C70.0231 18.6667 69.9964 18.9667 69.8764 19.26C69.7697 19.54 69.5431 19.7133 69.1964 19.78C68.9964 19.82 68.8031 19.8067 68.6164 19.74C68.4431 19.66 68.2831 19.5533 68.1364 19.42C67.9897 19.2733 67.8564 19.12 67.7364 18.96C67.6297 18.7867 67.5297 18.6267 67.4364 18.48C67.1297 18.88 66.7964 19.1933 66.4364 19.42C66.0764 19.6333 65.6431 19.7733 65.1364 19.84C64.7097 19.8933 64.3031 19.9067 63.9164 19.88C63.5297 19.8533 63.1164 19.78 62.6764 19.66C62.1031 19.5133 61.6297 19.26 61.2564 18.9C60.8964 18.5267 60.6164 18.1 60.4164 17.62C60.2297 17.1267 60.1297 16.6 60.1164 16.04C60.1031 15.48 60.1697 14.9267 60.3164 14.38C60.5031 13.66 60.7831 13.0733 61.1564 12.62C61.5297 12.1667 61.9631 11.82 62.4564 11.58ZM62.9564 13.92C62.7697 14.1067 62.6231 14.3267 62.5164 14.58C62.4097 14.8333 62.3431 15.1 62.3164 15.38C62.3031 15.66 62.3297 15.94 62.3964 16.22C62.4631 16.5 62.5697 16.7467 62.7164 16.96C62.8497 17.1467 63.0764 17.3067 63.3964 17.44C63.7164 17.56 64.0497 17.6333 64.3964 17.66C64.7964 17.6867 65.1431 17.58 65.4364 17.34C65.7431 17.1 65.9697 16.8 66.1164 16.44C66.2764 16.0667 66.3497 15.6733 66.3364 15.26C66.3231 14.8333 66.2097 14.4467 65.9964 14.1C65.8364 13.8467 65.6231 13.66 65.3564 13.54C65.1031 13.42 64.8297 13.36 64.5364 13.36C64.2431 13.3467 63.9497 13.3933 63.6564 13.5C63.3764 13.5933 63.1431 13.7333 62.9564 13.92ZM71.6403 12.92C71.6403 12.76 71.6403 12.58 71.6403 12.38C71.6403 12.1667 71.647 11.9533 71.6603 11.74C71.6736 11.5133 71.6936 11.3 71.7203 11.1C71.7603 10.8867 71.8136 10.7 71.8803 10.54C71.987 10.3 72.1536 10.14 72.3803 10.06C72.607 9.96667 72.8536 9.92667 73.1203 9.94C73.4003 9.94 73.6203 9.98667 73.7803 10.08C73.9403 10.1733 74.0603 10.3 74.1403 10.46C74.2203 10.6067 74.267 10.78 74.2803 10.98C74.307 11.1667 74.3203 11.3667 74.3203 11.58C74.4403 11.3667 74.6003 11.1933 74.8003 11.06C75.0136 10.9267 75.227 10.82 75.4403 10.74C75.6536 10.66 75.847 10.6067 76.0203 10.58C76.1936 10.54 76.2936 10.52 76.3203 10.52C76.6536 10.4933 76.9536 10.4867 77.2203 10.5C77.5003 10.5133 77.807 10.5733 78.1403 10.68C78.3536 10.76 78.5736 10.8733 78.8003 11.02C79.027 11.1533 79.227 11.3133 79.4003 11.5C79.5736 11.6867 79.687 11.8933 79.7403 12.12C79.807 12.3333 79.7803 12.56 79.6603 12.8C79.4736 13.1333 79.267 13.3 79.0403 13.3C78.8136 13.2867 78.567 13.2467 78.3003 13.18C78.1536 13.1533 77.9803 13.0933 77.7803 13C77.5803 12.9067 77.407 12.8467 77.2603 12.82C76.807 12.7533 76.407 12.7867 76.0603 12.92C75.7136 13.0533 75.4136 13.2133 75.1603 13.4C74.867 13.6267 74.6136 13.8867 74.4003 14.18V17.06C74.4003 17.42 74.3936 17.7933 74.3803 18.18C74.3803 18.5667 74.327 18.92 74.2203 19.24C74.127 19.5467 73.9603 19.8 73.7203 20C73.4936 20.1867 73.1603 20.2667 72.7203 20.24C72.4803 20.2267 72.267 20.1133 72.0803 19.9C71.8936 19.6733 71.7803 19.4533 71.7403 19.24C71.7136 19.04 71.6936 18.8 71.6803 18.52C71.667 18.24 71.6536 17.9467 71.6403 17.64C71.6403 17.3333 71.6403 17.0267 71.6403 16.72C71.6403 16.4 71.6403 16.1067 71.6403 15.84V12.92ZM87.1145 17.26C87.2745 17.22 87.4345 17.1933 87.5945 17.18C87.7679 17.1667 87.9212 17.1867 88.0545 17.24C88.2012 17.2933 88.3212 17.3867 88.4145 17.52C88.5079 17.64 88.5545 17.8133 88.5545 18.04C88.5545 18.2 88.5145 18.3533 88.4345 18.5C88.3545 18.6467 88.2545 18.78 88.1345 18.9C88.0145 19.02 87.8812 19.1267 87.7345 19.22C87.5879 19.3 87.4479 19.3667 87.3145 19.42C86.9279 19.5933 86.4812 19.7267 85.9745 19.82C85.4812 19.9133 84.9679 19.9467 84.4345 19.92C83.7145 19.8933 83.0212 19.7533 82.3545 19.5C81.7012 19.2333 81.1879 18.8 80.8145 18.2C80.4679 17.6133 80.2612 16.96 80.1945 16.24C80.1279 15.52 80.1612 14.84 80.2945 14.2C80.4412 13.4267 80.6879 12.8 81.0345 12.32C81.3945 11.8267 81.8212 11.4333 82.3145 11.14C82.9145 10.7933 83.5879 10.6133 84.3345 10.6C85.0812 10.5867 85.7945 10.7333 86.4745 11.04C86.9279 11.24 87.3345 11.5133 87.6945 11.86C88.0545 12.1933 88.3279 12.6 88.5145 13.08C88.5679 13.2 88.6079 13.3467 88.6345 13.52C88.6745 13.6933 88.7012 13.88 88.7145 14.08C88.7279 14.2667 88.7279 14.4533 88.7145 14.64C88.7012 14.8267 88.6679 14.9933 88.6145 15.14C88.5345 15.38 88.4345 15.5667 88.3145 15.7C88.1945 15.8333 88.0412 15.9333 87.8545 16C87.6679 16.0667 87.4412 16.1133 87.1745 16.14C86.9212 16.1533 86.6145 16.1667 86.2545 16.18C85.9345 16.1933 85.6345 16.2 85.3545 16.2C85.0745 16.2 84.7879 16.2 84.4945 16.2C84.2012 16.1867 83.8945 16.18 83.5745 16.18C83.2679 16.1667 82.9212 16.1533 82.5345 16.14C82.4945 16.4067 82.5279 16.64 82.6345 16.84C82.7545 17.0267 82.9145 17.1867 83.1145 17.32C83.3145 17.44 83.5412 17.5333 83.7945 17.6C84.0479 17.6667 84.2945 17.7067 84.5345 17.72C84.9879 17.7467 85.4212 17.7133 85.8345 17.62C86.2479 17.5133 86.6745 17.3933 87.1145 17.26ZM86.2545 13.38C86.0012 13.0867 85.7345 12.8733 85.4545 12.74C85.2412 12.6467 85.0145 12.6067 84.7745 12.62C84.5479 12.62 84.3279 12.6533 84.1145 12.72C83.7279 12.8133 83.4012 13.0133 83.1345 13.32C83.1079 13.3467 83.0612 13.4133 82.9945 13.52C82.9279 13.6133 82.8612 13.7133 82.7945 13.82C82.7412 13.9267 82.7012 14.0267 82.6745 14.12C82.6479 14.2133 82.6612 14.26 82.7145 14.26H86.6345C86.6212 14.0733 86.5879 13.92 86.5345 13.8C86.4812 13.6667 86.3879 13.5267 86.2545 13.38ZM96.5713 6.02C96.8246 5.95333 97.0446 5.94667 97.2313 6C97.4313 6.04 97.5979 6.12667 97.7313 6.26C97.8779 6.39333 97.9846 6.56 98.0513 6.76C98.1313 6.96 98.1713 7.18 98.1713 7.42C98.1846 8.08667 98.1846 8.60667 98.1713 8.98C98.1713 9.35333 98.1713 9.68 98.1713 9.96V16.1C98.1713 16.82 98.1713 17.42 98.1713 17.9C98.1713 18.38 98.1446 18.7733 98.0913 19.08C98.0513 19.3733 97.9713 19.5933 97.8513 19.74C97.7446 19.8867 97.5779 19.9867 97.3513 20.04C97.1246 20.1067 96.8246 20.14 96.4513 20.14C96.0913 20.14 95.6379 20.14 95.0913 20.14C93.6513 20.14 92.5113 19.8 91.6713 19.12C90.8446 18.44 90.4046 17.36 90.3513 15.88C90.3246 15.24 90.4046 14.6533 90.5913 14.12C90.7779 13.5867 91.0513 13.1333 91.4113 12.76C91.7846 12.3733 92.2379 12.08 92.7713 11.88C93.3179 11.6667 93.9379 11.5667 94.6313 11.58H95.7313V8C95.7313 7.78667 95.7313 7.58 95.7313 7.38C95.7313 7.16667 95.7513 6.97333 95.7913 6.8C95.8313 6.61333 95.9113 6.45333 96.0313 6.32C96.1513 6.18667 96.3313 6.08667 96.5713 6.02ZM93.0913 17.12C93.3713 17.5067 93.8779 17.72 94.6113 17.76C94.7579 17.7733 94.8979 17.78 95.0313 17.78C95.1646 17.7667 95.2846 17.7467 95.3913 17.72C95.5113 17.7067 95.6246 17.6867 95.7313 17.66V13.96C95.2646 13.88 94.8379 13.8333 94.4513 13.82C94.0779 13.7933 93.7046 13.9267 93.3313 14.22C93.1313 14.38 92.9779 14.5867 92.8713 14.84C92.7646 15.08 92.7046 15.34 92.6913 15.62C92.6779 15.8867 92.7046 16.1533 92.7713 16.42C92.8379 16.6867 92.9446 16.92 93.0913 17.12Z" fill="url(#paint1_linear_1_11)"/>
<defs>
<linearGradient id="paint0_linear_1_11" x1="-0.20202" y1="0.5" x2="21.8744" y2="1.57727" gradientUnits="userSpaceOnUse">
<stop offset="0.239557" stop-color="#CC3534"/>
<stop offset="0.768516" stop-color="#F48120"/>
</linearGradient>
<linearGradient id="paint1_linear_1_11" x1="24.2525" y1="1.47615" x2="103.289" y2="16.4608" gradientUnits="userSpaceOnUse">
<stop offset="0.239557" stop-color="#CC3534"/>
<stop offset="0.768516" stop-color="#F48120"/>
</linearGradient>
</defs>
</svg>
